<?xml version="1.0" encoding="UTF-8"?>
<svg width="571.12" height="512" classname="w-[30px] h-[30px] fill-white cursor-pointer" version="1.1" viewbox="0 0 576 512" xmlns="http://www.w3.org/2000/svg">
 <path d="m0 24c0-13.3 10.7-24 24-24h45.5c22 0 41.5 12.8 50.6 32h411c26.3 0 45.5 25 38.6 50.4l-41 152.3c-8.5 31.4-37 53.3-69.5 53.3h-288.5l5.4 28.5c2.2 11.3 12.1 19.5 23.6 19.5h288.3c13.3 0 24 10.7 24 24s-10.7 24-24 24h-288.3c-34.6 0-64.3-24.6-70.7-58.5l-51.6-271c-0.7-3.8-4-6.5-7.9-6.5h-45.5c-13.3 0-24-10.7-24-24zm128 440a48 48 0 1 1 96 0 48 48 0 1 1-96 0zm336-48a48 48 0 1 1 0 96 48 48 0 1 1 0-96z"/>
</svg>
