<svg xmlns="http://www.w3.org/2000/svg" width="35.021" height="17.8" viewBox="0 0 35.021 17.8">
  <g id="Group_7886" data-name="Group 7886" transform="translate(0.4 2.4)">
    <g id="Group_7638" data-name="Group 7638" transform="translate(18.035 1.5)">
      <g id="Rectangle_4500" data-name="Rectangle 4500" transform="translate(1.919 1.793) rotate(-19)" fill="none" stroke="#fcba08" stroke-linecap="round" stroke-width="0.8" stroke-dasharray="16 240">
        <rect width="5.508" height="9.914" rx="1" stroke="none"/>
        <rect x="0.4" y="0.4" width="4.708" height="9.114" rx="0.6" fill="none"/>
      </g>
      <g id="Rectangle_4502" data-name="Rectangle 4502" transform="matrix(0.891, -0.454, 0.454, 0.891, 0, 2.992)" fill="none" stroke="#fcba08" stroke-linecap="round" stroke-width="0.8" stroke-dasharray="8 220">
        <rect width="3.58" height="6.187" rx="1" stroke="none"/>
        <rect x="0.4" y="0.4" width="2.78" height="5.387" rx="0.6" fill="none"/>
      </g>
      <path id="Path_16116" data-name="Path 16116" d="M-14207.284-11258.66l-1.534,3.1a8.109,8.109,0,0,0-2.225-.965,8.346,8.346,0,0,0-2.447-.141,2.34,2.34,0,0,0-.749-1.532c-.685-.535-1.146-.246-1.722-.419a1.192,1.192,0,0,1-.85-1.152.866.866,0,0,1,1.023-.963,4.881,4.881,0,0,0,1.548,0c-.036-.071-1.069-3.067-1.069-3.067a5.019,5.019,0,0,1,.962-.117,1.5,1.5,0,0,1,1.129.356,35.621,35.621,0,0,0,3.83,3.791A6.372,6.372,0,0,0-14207.284-11258.66Z" transform="translate(14223.284 11266.381)" fill="none" stroke="#fcba08" stroke-width="0.8"/>
    </g>
    <path id="Union_144" data-name="Union 144" d="M10.009,16.1,9.4,13.181,6.856,10.893,5.728,13.706a1.9,1.9,0,0,1-.426.675,1.461,1.461,0,0,1-.676.3H.642a.828.828,0,0,1-.633-.8c-.053-.7.162-.914.162-.914H3.788L4.837,10,4.6,8.319V4.9A1.6,1.6,0,0,1,6.124,3.461c1.4-.081,1.657.773,1.657.773L10.014,6.59l1.117-.006v-.35a1.5,1.5,0,0,1,1.5-1.5H15.5a1.5,1.5,0,0,1,1.5,1.5V7.907a1.5,1.5,0,0,1-1.5,1.5H12.631a1.5,1.5,0,0,1-1.482-1.272c-.8.024-1.585.044-1.73.03C9.106,8.136,8.079,6.8,8.079,6.8L8.033,9.252l2.04,1.818a5.218,5.218,0,0,1,.694.608,2.953,2.953,0,0,1,.3.736l.742,3.507a.931.931,0,0,1-.765,1.068,1.091,1.091,0,0,1-.149.011C10.139,17,10.009,16.1,10.009,16.1ZM5.9,1.484a1.445,1.445,0,1,1,2.888,0,1.445,1.445,0,1,1-2.888,0Z" transform="translate(0 -2)" fill="none" stroke="#fcba08" stroke-width="0.8"/>
  </g>
</svg>
