<svg xmlns="http://www.w3.org/2000/svg" width="145" height="105" viewBox="0 0 145 105">
  <g id="Group_7640" data-name="Group 7640" transform="translate(14494 11307)">
    <g id="Rectangle_9" data-name="Rectangle 9" transform="translate(-14494 -11307)" fill="#c5c5c5" stroke="#fcba08" stroke-width="1" opacity="0.15">
      <rect width="145" height="105" rx="15" stroke="none"/>
      <rect x="0.5" y="0.5" width="144" height="104" rx="14.5" fill="none"/>
    </g>
    <g id="Group_7639" data-name="Group 7639" transform="translate(0.5 0.5)">
      <g id="Group_7638" data-name="Group 7638">
        <g id="Rectangle_4500" data-name="Rectangle 4500" transform="translate(-14408.926 -11266.554) rotate(-19)" fill="none" stroke="#fcba08" stroke-linecap="round" stroke-width="1" stroke-dasharray="55 240">
          <rect width="17.768" height="31.984" rx="2" stroke="none"/>
          <rect x="0.5" y="0.5" width="16.768" height="30.984" rx="1.5" fill="none"/>
        </g>
        <g id="Rectangle_4502" data-name="Rectangle 4502" transform="matrix(0.891, -0.454, 0.454, 0.891, -14415.117, -11262.687)" fill="none" stroke="#fcba08" stroke-linecap="round" stroke-width="1" stroke-dasharray="28 220">
          <rect width="11.549" height="19.96" rx="2" stroke="none"/>
          <rect x="0.5" y="0.5" width="10.549" height="18.96" rx="1.5" fill="none"/>
        </g>
        <path id="Path_16116" data-name="Path 16116" d="M-14186.077-11246.966l-4.949,10.01a26.175,26.175,0,0,0-7.18-3.111,27.028,27.028,0,0,0-7.894-.455,7.544,7.544,0,0,0-2.416-4.941c-2.209-1.727-3.7-.794-5.556-1.354a3.839,3.839,0,0,1-2.739-3.717c0-1.5.666-3.324,3.3-3.107s5.11.229,5,0-3.452-9.895-3.452-9.895a16.249,16.249,0,0,1,3.105-.377,4.85,4.85,0,0,1,3.642,1.147c.78.871,8.218,9.236,12.356,12.231S-14186.077-11246.966-14186.077-11246.966Z" transform="translate(-177.621 -0.464)" fill="none" stroke="#fcba08" stroke-width="1"/>
      </g>
      <path id="Union_144" data-name="Union 144" d="M34.637,54.746,32.531,44.9l-8.807-7.708-3.911,9.48a6.219,6.219,0,0,1-1.473,2.264A5.12,5.12,0,0,1,16,49.945H2.2A2.822,2.822,0,0,1,.011,47.24,3.084,3.084,0,0,1,2.2,44.167H13.1l3.623-9.976-.816-5.667V17.016a5.46,5.46,0,0,1,5.279-4.859c4.855-.268,5.73,2.6,5.73,2.6L34.664,22.7l3.865-.019V17.948a1.5,1.5,0,0,1,1.5-1.5H57.351a1.5,1.5,0,0,1,1.5,1.5V30.692a1.5,1.5,0,0,1-1.5,1.5H40.028a1.5,1.5,0,0,1-1.5-1.5V27.906c-2.75.081-5.435.144-5.93.1-1.077-.1-4.639-4.617-4.639-4.617l-.167,8.278,7.069,6.124a17.556,17.556,0,0,1,2.4,2.048A9.958,9.958,0,0,1,38.3,42.314l2.566,11.819s.416,3.168-2.65,3.6a3.777,3.777,0,0,1-.519.037C35.087,57.768,34.637,54.746,34.637,54.746ZM20.426,5.5a5,5,0,1,1,5,5A5,5,0,0,1,20.426,5.5Z" transform="translate(-14479.501 -11284.001)" fill="none" stroke="#fcba08" stroke-width="1"/>
    </g>
  </g>
</svg>
