<?xml version="1.0" encoding="UTF-8" standalone="no"?>
<svg
   width="145"
   height="105"
   viewBox="0 0 145 104.99999"
   version="1.1"
   id="svg39"
   sodipodi:docname="free-delivery.svg"
   inkscape:version="1.1.2 (0a00cf5339, 2022-02-04)"
   xmlns:inkscape="http://www.inkscape.org/namespaces/inkscape"
   xmlns:sodipodi="http://sodipodi.sourceforge.net/DTD/sodipodi-0.dtd"
   xmlns:xlink="http://www.w3.org/1999/xlink"
   xmlns="http://www.w3.org/2000/svg"
   xmlns:svg="http://www.w3.org/2000/svg">
  <sodipodi:namedview
     id="namedview41"
     pagecolor="#ffffff"
     bordercolor="#666666"
     borderopacity="1.0"
     inkscape:pageshadow="2"
     inkscape:pageopacity="0.0"
     inkscape:pagecheckerboard="0"
     showgrid="false"
     inkscape:zoom="2.9168581"
     inkscape:cx="72.680944"
     inkscape:cy="75.595038"
     inkscape:window-width="1920"
     inkscape:window-height="1080"
     inkscape:window-x="0"
     inkscape:window-y="0"
     inkscape:window-maximized="1"
     inkscape:current-layer="Group_11" />
  <defs
     id="defs7">
    <linearGradient
       id="linear-gradient"
       x1="1"
       y1="1"
       x2="0.34299999"
       y2="1"
       gradientUnits="objectBoundingBox">
      <stop
         offset="0"
         stop-color="#fcba08"
         id="stop2" />
      <stop
         offset="1"
         stop-color="#f7b90f"
         stop-opacity="0.2"
         id="stop4" />
    </linearGradient>
    <linearGradient
       inkscape:collect="always"
       xlink:href="#linear-gradient"
       id="linearGradient283"
       gradientUnits="userSpaceOnUse"
       x1="6.2109243"
       y1="6.2113944"
       x2="2.1300381"
       y2="6.2113944"
       gradientTransform="scale(4.1409296,0.24149167)" />
    <linearGradient
       inkscape:collect="always"
       xlink:href="#linear-gradient"
       id="linearGradient285"
       gradientUnits="userSpaceOnUse"
       x1="5.0497525"
       y1="5.0497525"
       x2="1.7320651"
       y2="5.0497525"
       gradientTransform="scale(3.3665016,0.29704426)" />
    <linearGradient
       inkscape:collect="always"
       xlink:href="#linear-gradient"
       id="linearGradient287"
       gradientUnits="userSpaceOnUse"
       x1="4.1533119"
       y1="4.1533119"
       x2="1.424586"
       y2="4.1533119"
       gradientTransform="scale(2.7688746,0.36115756)" />
  </defs>
  <g
     id="Group_11"
     data-name="Group 11"
     transform="translate(-130,-979)">
    <g
       id="Rectangle_9"
       data-name="Rectangle 9"
       transform="translate(130,979)"
       fill="#c5c5c5"
       stroke="#707070"
       stroke-width="1"
       opacity="0.15">
      <rect
         width="145"
         height="105"
         rx="15"
         stroke="none"
         id="rect15"
         x="0"
         y="0" />
      <rect
         x="0.5"
         y="0.5"
         width="144"
         height="104"
         rx="14.5"
         fill="none"
         id="rect17" />
    </g>
    <g
       id="Group_10"
       data-name="Group 10"
       transform="translate(6.5,5)">
      <g
         id="Group_15"
         data-name="Group 15">
        <g
           id="Group_9"
           data-name="Group 9">
          <path
             id="Icon_material-directions-bike"
             data-name="Icon material-directions-bike"
             d="M 39.317,12.4 A 5.073,5.073 0 1 0 34.244,7.327 5.088,5.088 0 0 0 39.317,12.4 Z M 12.683,28.884 a 12.683,12.683 0 1 0 0,25.366 12.683,12.683 0 1 0 0,-25.366 z m 0,21.561 a 8.878,8.878 0 1 1 0,-17.756 8.878,8.878 0 1 1 0,17.756 z M 27.4,25.079 l 6.088,-6.088 2.029,2.029 a 17.77,17.77 0 0 0 12.937,5.327 v -5.073 a 12.6,12.6 0 0 1 -9.132,-3.8 L 34.5,12.65 A 6.22,6.22 0 0 0 30.441,11.128 4.257,4.257 0 0 0 26.89,12.65 l -7.1,7.1 a 5.008,5.008 0 0 0 -1.527,3.55 4.257,4.257 0 0 0 1.522,3.551 l 8.117,7.1 V 46.64 h 5.073 V 30.913 Z m 20.8,3.8 A 12.683,12.683 0 1 0 60.878,41.567 12.56,12.56 0 0 0 48.2,28.884 Z m 0,21.561 a 8.878,8.878 0 1 1 8.878,-8.878 8.987,8.987 0 0 1 -8.878,8.883 z"
             transform="translate(173.222,997.75)"
             fill="none"
             stroke="#fcba08"
             stroke-width="1" />
          <g
             id="Rectangle_11"
             data-name="Rectangle 11"
             transform="translate(176,1016)"
             fill="none"
             stroke="#fcba08"
             stroke-width="1">
            <rect
               width="14"
               height="10"
               rx="2"
               stroke="none"
               id="rect21"
               x="0"
               y="0" />
            <rect
               x="0.5"
               y="0.5"
               width="13"
               height="9"
               rx="1.5"
               fill="none"
               id="rect23" />
          </g>
          <g
             id="Rectangle_12"
             data-name="Rectangle 12"
             transform="translate(176,1010)"
             fill="none"
             stroke="#fcba08"
             stroke-width="1">
            <rect
               width="14"
               height="5"
               rx="2"
               stroke="none"
               id="rect26"
               x="0"
               y="0" />
            <rect
               x="0.5"
               y="0.5"
               width="13"
               height="4"
               rx="1.5"
               fill="none"
               id="rect28" />
          </g>
        </g>
        <path
           id="Path_3"
           data-name="Path 3"
           d="m 0.643,0 h 24.433 c 0.355,0 0.643,0.75 0.643,0.75 0,0 -0.288,0.75 -0.643,0.75 H 0.643 A 0.7,0.7 0 0 1 0,0.75 0.7,0.7 0 0 1 0.643,0 Z"
           transform="translate(149.8,1032)"
           fill="url(#linear-gradient)"
           style="fill:url(#linearGradient283)" />
        <rect
           id="Rectangle_14"
           data-name="Rectangle 14"
           width="17"
           height="1.5"
           rx="0.75"
           transform="translate(156.8,1040)"
           fill="url(#linear-gradient)"
           x="0"
           y="0"
           style="fill:url(#linearGradient285)" />
        <path
           id="Rectangle_15"
           data-name="Rectangle 15"
           d="m 0.75,0 h 9.625 A 1.125,1.125 0 0 1 11.5,1.125 V 1.5 H 0.75 A 0.75,0.75 0 0 1 0,0.75 v 0 A 0.75,0.75 0 0 1 0.75,0 Z"
           transform="translate(166.3,1048)"
           fill="url(#linear-gradient)"
           style="fill:url(#linearGradient287)" />
      </g>
    </g>
  </g>
</svg>
