<?xml version="1.0" encoding="utf-8"?>
<!-- Generator: Adobe Illustrator 27.2.0, SVG Export Plug-In . SVG Version: 6.00 Build 0)  -->
<svg version="1.1" id="Layer_1" xmlns="http://www.w3.org/2000/svg" xmlns:xlink="http://www.w3.org/1999/xlink" x="0px" y="0px"
	 viewBox="0 0 1000 1000" style="enable-background:new 0 0 1000 1000;" xml:space="preserve">
<style type="text/css">
	.st0{fill:#003C7A;}
</style>
<g>
	<g>
		<path class="st0" d="M293.97,454.44c4.26-1.72,6.88-5.89,6.89-10.83c0.05-1.43-0.17-2.82-0.64-4.17
			c-1.71-4.9-5.37-8.51-8.44-12.49c-1.06-1.37-2.13-0.61-3.01,0.41c-2.64,3.07-5.18,6.23-7.15,9.77c-2.63,4.74-1.8,11.65,1.76,14.97
			C286.42,454.93,289.92,456.08,293.97,454.44z"/>
		<path class="st0" d="M268.87,459.52c3.54,1.81,7.25,3.28,10.81,5.03c4.26,2.09,7.9,4.9,9.61,9.58c0.36,0.99,0.69,2,1.09,3.15
			c0.8-0.92,0.78-1.85,1.06-2.67c1.54-4.56,4.81-7.53,8.95-9.6c3.82-1.91,7.8-3.49,11.59-5.44c4.4-2.27,7.1-5.88,7.56-10.94
			c0.05-0.57,0.25-1.32-0.26-1.67c-0.6-0.42-1.05,0.29-1.51,0.61c-1.77,1.22-3.64,2.22-5.68,2.93c-3.06,1.06-6.12,2.14-9.16,3.26
			c-5.84,2.15-9.88,6-11.42,12.2c-0.21,0.85-0.55,1.67-0.83,2.51c-1.05,0.04-0.35-1.1-0.93-1.38c-1.61-7.25-6.23-11.49-13.14-13.87
			c-4.56-1.57-9.45-2.47-13.39-5.59c-0.43-0.34-0.89-1.04-1.5-0.69c-0.66,0.38-0.4,1.21-0.34,1.83
			C261.9,453.72,264.52,457.3,268.87,459.52z"/>
		<path class="st0" d="M294.17,545.56c-4.05-1.64-7.55-0.49-10.59,2.34c-3.56,3.32-4.39,10.23-1.76,14.97
			c1.97,3.54,4.51,6.7,7.15,9.77c0.88,1.02,1.95,1.79,3.01,0.41c3.07-3.98,6.73-7.58,8.44-12.49c0.47-1.35,0.69-2.74,0.64-4.17
			C301.05,551.45,298.43,547.28,294.17,545.56z"/>
		<path class="st0" d="M312.19,541.18c-3.79-1.95-7.78-3.53-11.59-5.44c-4.14-2.07-7.42-5.05-8.95-9.6
			c-0.28-0.82-0.27-1.75-1.06-2.67c-0.4,1.15-0.72,2.16-1.09,3.15c-1.72,4.68-5.35,7.48-9.61,9.58c-3.57,1.75-7.28,3.22-10.81,5.03
			c-4.35,2.23-6.97,5.8-7.45,10.76c-0.06,0.62-0.32,1.45,0.34,1.83c0.6,0.35,1.07-0.35,1.5-0.69c3.94-3.12,8.83-4.02,13.39-5.59
			c6.91-2.38,11.53-6.62,13.14-13.87c0.58-0.27-0.12-1.41,0.93-1.38c0.28,0.84,0.62,1.66,0.83,2.51c1.54,6.2,5.58,10.05,11.42,12.2
			c3.04,1.12,6.09,2.2,9.16,3.26c2.04,0.71,3.91,1.7,5.68,2.93c0.46,0.32,0.91,1.02,1.51,0.61c0.51-0.35,0.31-1.1,0.26-1.67
			C319.28,547.06,316.59,543.45,312.19,541.18z"/>
		<path class="st0" d="M339.79,447.27c-0.03-0.09-0.11-0.17-0.3-0.44c-0.97,4.05-3.65,6.4-7.09,7.91c-3.19,1.39-6.47,2.58-9.74,3.78
			c-7.12,2.6-13.65,6.15-19.02,11.61c-6.86,6.98-10.84,15.45-12.89,24.91c-0.23,1.06-0.22,2.23-0.06,3.31
			c0.25,1.67,1.56,2.14,2.92,1.11c1.61-1.21,2.38-2.97,2.96-4.82c1.23-3.95,3.18-7.51,5.93-10.59c5.42-6.07,12.09-8.75,20.24-7.27
			c0.4,0.07,0.79,0.19,1.51,0.36c-1.23,1.43-2.24,2.75-3.41,3.92c-2.61,2.62-5.74,4.51-8.97,6.26c-1.16,0.62-2.27,1.36-3.29,2.18
			c-0.74,0.59-1.28,1.46-0.95,2.49c0.35,1.11,1.36,1.36,2.35,1.41c0.86,0.04,1.77,0.05,2.59-0.18
			c13.73-3.83,23.64-11.96,28.19-25.75C343.01,460.69,342.22,453.9,339.79,447.27z"/>
		<path class="st0" d="M313.84,508.29c-1.45-0.47-3.07-0.69-4.59-0.64c-1.84,0.06-2.55,1.65-1.4,3.11c0.82,1.04,1.93,1.91,3.06,2.61
			c3.12,1.92,6.21,3.9,8.72,6.6c1.26,1.36,2.35,2.88,3.66,4.51c-2.78,0.62-5.23,0.69-7.68,0.31c-6.88-1.08-11.77-5.07-15.43-10.77
			c-1.65-2.57-2.75-5.37-3.61-8.31c-0.43-1.48-1.21-2.87-1.92-4.25c-0.22-0.44-0.69-0.79-1.12-1.07c-1.09-0.73-2.29-0.43-2.55,0.84
			c-0.28,1.37-0.41,2.86-0.17,4.22c1.64,9.45,5.24,18.03,11.73,25.24c4.92,5.47,10.99,9.27,17.69,12.14
			c2.82,1.21,5.68,2.33,8.41,3.7c1.82,0.91,3.54,2.09,5.13,3.36c1.73,1.39,2.63,3.37,3.19,5.54c1.73-3.6,2.77-7.34,3.02-11.26
			c0.69-10.59-3.53-19.19-10.9-26.45C324.72,513.45,319.67,510.19,313.84,508.29z"/>
		<path class="st0" d="M268.57,493.22c0.82,0.23,1.73,0.22,2.59,0.18c0.99-0.05,2-0.3,2.35-1.41c0.33-1.03-0.21-1.9-0.95-2.49
			c-1.02-0.82-2.14-1.56-3.29-2.18c-3.23-1.75-6.37-3.63-8.97-6.26c-1.16-1.17-2.17-2.49-3.41-3.92c0.71-0.17,1.11-0.28,1.51-0.36
			c8.15-1.49,14.82,1.19,20.24,7.27c2.75,3.08,4.7,6.64,5.93,10.59c0.58,1.85,1.35,3.61,2.96,4.82c1.36,1.02,2.67,0.56,2.92-1.11
			c0.16-1.08,0.17-2.25-0.06-3.31c-2.05-9.45-6.03-17.93-12.89-24.91c-5.37-5.46-11.9-9.01-19.02-11.61
			c-3.27-1.2-6.55-2.39-9.74-3.78c-3.45-1.51-6.12-3.86-7.09-7.91c-0.19,0.28-0.26,0.35-0.3,0.44c-2.43,6.63-3.22,13.43-0.98,20.2
			C244.93,481.26,254.84,489.38,268.57,493.22z"/>
		<path class="st0" d="M278.62,530.7c6.5-7.21,10.09-15.78,11.73-25.24c0.24-1.36,0.11-2.86-0.17-4.22
			c-0.26-1.27-1.45-1.58-2.55-0.84c-0.43,0.29-0.89,0.64-1.12,1.07c-0.71,1.38-1.49,2.77-1.92,4.25c-0.86,2.93-1.96,5.74-3.61,8.31
			c-3.66,5.71-8.55,9.69-15.43,10.77c-2.45,0.39-4.9,0.32-7.68-0.31c1.31-1.63,2.39-3.15,3.66-4.51c2.51-2.7,5.6-4.68,8.72-6.6
			c1.13-0.7,2.24-1.58,3.06-2.61c1.15-1.46,0.44-3.05-1.4-3.11c-1.53-0.05-3.14,0.16-4.59,0.64c-5.83,1.9-10.88,5.15-15.23,9.44
			c-7.37,7.26-11.6,15.86-10.9,26.45c0.26,3.93,1.29,7.67,3.02,11.26c0.55-2.16,1.46-4.15,3.19-5.54c1.59-1.28,3.31-2.45,5.13-3.36
			c2.73-1.37,5.6-2.5,8.41-3.7C267.63,539.97,273.69,536.16,278.62,530.7z"/>
	</g>
	<g>
		<g>
			<path class="st0" d="M401.56,501.72c3.59,2.69,5.39,6.4,5.39,11.14c0,3.41-0.96,6.4-2.87,8.98c-1.92,2.58-4.54,4.57-7.86,5.95
				c-3.33,1.38-7.04,2.08-11.14,2.08c-4.52,0-8.64-1.17-12.33-3.51c-3.7-2.34-6.56-5.38-8.58-9.1l8.94-4.15
				c1.17,2.08,2.89,3.87,5.15,5.39c2.26,1.52,4.62,2.28,7.07,2.28c3.14,0,5.85-0.73,8.14-2.2c2.29-1.46,3.43-3.5,3.43-6.11
				c0-2.13-1.05-3.87-3.15-5.23c-2.1-1.36-4.83-2.52-8.18-3.47c-12.99-3.78-19.48-9.15-19.48-16.13c0-3.25,0.89-6.2,2.67-8.86
				c1.78-2.66,4.24-4.76,7.39-6.31c3.14-1.54,6.6-2.32,10.38-2.32c4.42,0,8.3,1,11.66,2.99s5.8,4.56,7.34,7.7l-8.62,3.99
				c-2.45-3.78-5.91-5.67-10.38-5.67c-2.82,0.05-5.24,0.81-7.27,2.28c-2.02,1.46-3.03,3.37-3.03,5.71c0,1.81,0.92,3.27,2.75,4.39
				s4.4,2.18,7.7,3.19C393.01,496.7,397.97,499.03,401.56,501.72z"/>
			<path class="st0" d="M497.73,472.06l-20.52,57.8l-14.85-36.4l-14.93,36.4l-20.52-57.8h10.3l11.1,32.65l14.05-34.57l13.97,34.57
				l11.18-32.65H497.73z"/>
			<path class="st0" d="M533.17,470.14l25.87,57.8h-11.1l-14.77-34.49l-14.69,34.49h-11.18L533.17,470.14z"/>
			<path class="st0" d="M614.41,501.72c3.59,2.69,5.39,6.4,5.39,11.14c0,3.41-0.96,6.4-2.87,8.98c-1.92,2.58-4.54,4.57-7.86,5.95
				c-3.33,1.38-7.04,2.08-11.14,2.08c-4.52,0-8.64-1.17-12.33-3.51c-3.7-2.34-6.56-5.38-8.58-9.1l8.94-4.15
				c1.17,2.08,2.89,3.87,5.15,5.39c2.26,1.52,4.62,2.28,7.06,2.28c3.14,0,5.85-0.73,8.14-2.2c2.29-1.46,3.43-3.5,3.43-6.11
				c0-2.13-1.05-3.87-3.15-5.23c-2.1-1.36-4.83-2.52-8.18-3.47c-12.99-3.78-19.48-9.15-19.48-16.13c0-3.25,0.89-6.2,2.67-8.86
				c1.78-2.66,4.24-4.76,7.38-6.31c3.14-1.54,6.6-2.32,10.38-2.32c4.42,0,8.3,1,11.66,2.99s5.8,4.56,7.35,7.7l-8.62,3.99
				c-2.45-3.78-5.91-5.67-10.38-5.67c-2.82,0.05-5.24,0.81-7.26,2.28c-2.02,1.46-3.03,3.37-3.03,5.71c0,1.81,0.92,3.27,2.75,4.39
				c1.84,1.12,4.4,2.18,7.7,3.19C605.85,496.7,610.81,499.03,614.41,501.72z"/>
			<path class="st0" d="M686.46,472.06v55.89h-9.98v-24.75h-22.75v24.75h-9.98v-55.89h9.98v22.75h22.75v-22.75H686.46z"/>
			<path class="st0" d="M735.07,470.14l25.87,57.8h-11.1l-14.77-34.49l-14.69,34.49h-11.18L735.07,470.14z"/>
		</g>
	</g>
</g>
</svg>
