<svg xmlns="http://www.w3.org/2000/svg" xmlns:xlink="http://www.w3.org/1999/xlink" width="646" zoomAndPan="magnify" viewBox="0 0 484.5 146.249994" height="195" preserveAspectRatio="xMidYMid meet" version="1.0"><defs><clipPath id="88b2283866"><path d="M 44 5 L 63.445312 5 L 63.445312 33 L 44 33 Z M 44 5 " clip-rule="nonzero"/></clipPath><clipPath id="78fcb933f9"><path d="M 56.792969 31.371094 C 60.675781 29.796875 63.074219 25.992188 63.085938 21.480469 C 63.125 20.175781 62.925781 18.902344 62.5 17.675781 C 60.933594 13.203125 57.597656 9.917969 54.789062 6.28125 C 53.824219 5.027344 52.847656 5.722656 52.050781 6.660156 C 49.640625 9.460938 47.320312 12.347656 45.527344 15.574219 C 43.128906 19.894531 43.894531 26.210938 47.132812 29.238281 C 49.898438 31.816406 53.097656 32.875 56.792969 31.378906 " clip-rule="nonzero"/></clipPath><clipPath id="b038915c01"><path d="M 27 24 L 80.503906 24 L 80.503906 52.609375 L 27 52.609375 Z M 27 24 " clip-rule="nonzero"/></clipPath><clipPath id="14c3fa9968"><path d="M 33.886719 36.011719 L 43.753906 40.601562 C 47.648438 42.515625 50.964844 45.074219 52.527344 49.347656 L 53.523438 52.222656 C 54.25 51.386719 54.242188 50.53125 54.492188 49.785156 C 55.894531 45.621094 58.882812 42.914062 62.65625 41.019531 L 73.234375 36.050781 C 77.246094 33.980469 79.707031 30.683594 80.136719 26.070312 L 80.363281 24.867188 L 78.941406 24.816406 C 76.910156 26.21875 75.207031 27.125 73.34375 27.773438 L 64.988281 30.753906 C 59.660156 32.714844 55.976562 36.230469 54.570312 41.886719 L 53.8125 44.175781 L 53.496094 43.171875 C 51.492188 36.300781 47.28125 32.433594 40.976562 30.265625 C 36.824219 28.828125 32.351562 28.003906 28.757812 25.15625 L 27.941406 24.207031 L 27.023438 25.632812 C 27.511719 30.730469 29.902344 33.988281 33.875 36.019531 " clip-rule="nonzero"/></clipPath><clipPath id="2756ea3adc"><path d="M 44 113 L 63.445312 113 L 63.445312 141 L 44 141 Z M 44 113 " clip-rule="nonzero"/></clipPath><clipPath id="a7118fa1a1"><path d="M 56.972656 114.527344 C 53.277344 113.035156 50.078125 114.082031 47.308594 116.660156 C 44.0625 119.6875 43.296875 126.003906 45.707031 130.324219 C 47.5 133.550781 49.820312 136.441406 52.230469 139.238281 C 53.035156 140.175781 54.011719 140.871094 54.96875 139.617188 C 57.777344 135.980469 61.113281 132.695312 62.675781 128.222656 C 63.105469 126.988281 63.304688 125.722656 63.265625 124.417969 C 63.253906 119.90625 60.855469 116.101562 56.972656 114.527344 " clip-rule="nonzero"/></clipPath><clipPath id="2df8ae27f9"><path d="M 26.882812 94 L 80.503906 94 L 80.503906 122.675781 L 26.882812 122.675781 Z M 26.882812 94 " clip-rule="nonzero"/></clipPath><clipPath id="7975857aa9"><path d="M 73.414062 110.535156 L 62.835938 105.566406 C 59.0625 103.671875 56.066406 100.964844 54.671875 96.800781 C 54.421875 96.054688 54.429688 95.207031 53.703125 94.363281 L 52.707031 97.238281 C 51.132812 101.511719 47.828125 104.070312 43.933594 105.972656 L 34.066406 110.574219 C 30.089844 112.605469 27.699219 115.875 27.261719 120.394531 L 26.972656 121.71875 L 28.546875 121.75 C 32.53125 118.59375 37.003906 117.765625 41.15625 116.332031 C 47.460938 114.160156 51.683594 110.296875 53.144531 103.671875 L 53.035156 102.378906 L 54.550781 103.921875 C 56.144531 110.355469 59.839844 113.871094 65.167969 115.832031 L 73.523438 118.8125 C 75.386719 119.460938 77.089844 120.367188 78.703125 121.480469 L 79.527344 122.417969 L 80.363281 121.03125 C 79.886719 115.894531 77.425781 112.597656 73.414062 110.527344 " clip-rule="nonzero"/></clipPath><clipPath id="8745f82925"><path d="M 53.695312 24.355469 L 101 24.355469 L 101 73 L 53.695312 73 Z M 53.695312 24.355469 " clip-rule="nonzero"/></clipPath><clipPath id="20b639c202"><path d="M 98.609375 24.828125 L 98.511719 24.675781 C 97.457031 28.121094 95.015625 30.265625 91.867188 31.648438 L 82.984375 35.09375 C 76.492188 37.472656 70.523438 40.703125 65.625 45.691406 C 59.371094 52.054688 55.734375 59.792969 53.863281 68.417969 L 53.804688 71.445312 C 54.03125 72.96875 55.226562 73.398438 56.472656 72.460938 C 57.945312 71.355469 58.644531 69.753906 59.171875 68.058594 C 60.296875 64.453125 62.070312 61.207031 64.578125 58.390625 C 69.53125 52.839844 75.613281 50.402344 83.054688 51.757812 L 83.78125 51.925781 C 83.304688 53.390625 82.386719 54.585938 81.320312 55.660156 C 78.941406 58.050781 76.082031 59.773438 73.132812 61.367188 L 70.125 63.359375 C 69.460938 63.894531 68.960938 64.691406 69.261719 65.628906 C 69.578125 66.636719 70.503906 66.863281 71.410156 66.914062 L 73.78125 66.753906 C 86.3125 63.257812 95.355469 55.839844 99.515625 43.25 C 101.558594 37.074219 100.839844 30.871094 98.621094 24.816406 " clip-rule="nonzero"/></clipPath><clipPath id="eda56f2bb1"><path d="M 53.289062 72.386719 L 99 72.386719 L 99 123.804688 L 53.289062 123.804688 Z M 53.289062 72.386719 " clip-rule="nonzero"/></clipPath><clipPath id="c02f2494de"><path d="M 74.925781 80.519531 C 73.601562 80.089844 72.128906 79.890625 70.734375 79.941406 C 69.050781 80 68.402344 81.453125 69.449219 82.777344 C 70.195312 83.726562 71.210938 84.523438 72.25 85.160156 C 75.097656 86.914062 77.914062 88.714844 80.207031 91.183594 L 83.542969 95.296875 C 81.011719 95.867188 78.773438 95.925781 76.53125 95.578125 C 70.246094 94.589844 65.785156 90.957031 62.449219 85.746094 C 60.945312 83.398438 59.9375 80.847656 59.152344 78.167969 L 57.398438 74.285156 C 57.191406 73.886719 56.761719 73.566406 56.375 73.308594 C 55.378906 72.640625 54.28125 72.917969 54.050781 74.074219 C 53.792969 75.320312 53.683594 76.683594 53.894531 77.929688 C 55.386719 86.554688 58.671875 94.382812 64.597656 100.964844 C 69.089844 105.953125 74.628906 109.421875 80.742188 112.050781 L 88.421875 115.425781 C 90.074219 116.261719 91.648438 117.328125 93.101562 118.492188 C 94.675781 119.757812 95.503906 121.570312 96.011719 123.542969 C 97.59375 120.265625 98.539062 116.851562 98.769531 113.265625 C 99.40625 103.605469 95.542969 95.746094 88.820312 89.125 C 84.847656 85.210938 80.234375 82.242188 74.917969 80.507812 " clip-rule="nonzero"/></clipPath><clipPath id="16a7cf4053"><path d="M 6 24.355469 L 53.695312 24.355469 L 53.695312 73 L 6 73 Z M 6 24.355469 " clip-rule="nonzero"/></clipPath><clipPath id="6f60bf62a9"><path d="M 33.617188 66.765625 L 35.988281 66.925781 C 36.894531 66.875 37.808594 66.65625 38.136719 65.640625 C 38.4375 64.691406 37.949219 63.90625 37.269531 63.367188 L 34.261719 61.375 C 31.316406 59.785156 28.457031 58.058594 26.078125 55.671875 L 22.96875 52.09375 C 23.617188 51.933594 23.976562 51.835938 24.34375 51.765625 C 31.785156 50.410156 37.867188 52.851562 42.820312 58.398438 C 45.328125 61.21875 47.109375 64.464844 48.238281 68.070312 C 48.765625 69.753906 49.472656 71.367188 50.933594 72.472656 C 52.179688 73.40625 53.375 72.980469 53.605469 71.457031 L 53.542969 68.429688 C 51.671875 59.804688 48.039062 52.066406 41.78125 45.699219 C 36.882812 40.710938 30.917969 37.472656 24.425781 35.105469 L 15.539062 31.660156 C 12.394531 30.285156 9.953125 28.132812 9.066406 24.4375 L 8.828125 24.757812 C 6.558594 30.882812 5.839844 37.074219 7.882812 43.261719 C 12.035156 55.847656 21.085938 63.269531 33.617188 66.765625 " clip-rule="nonzero"/></clipPath><clipPath id="bfd510983a"><path d="M 8 72.386719 L 54 72.386719 L 54 123.804688 L 8 123.804688 Z M 8 72.386719 " clip-rule="nonzero"/></clipPath><clipPath id="3155d8f252"><path d="M 42.777344 100.964844 C 48.703125 94.382812 51.992188 86.5625 53.484375 77.929688 C 53.703125 76.683594 53.585938 75.320312 53.324219 74.074219 C 53.085938 72.910156 52 72.628906 51.003906 73.308594 L 50.1875 73.886719 C 49.332031 75.546875 48.625 76.8125 48.226562 78.167969 C 47.441406 80.847656 46.433594 83.40625 44.929688 85.746094 C 41.582031 90.957031 37.121094 94.589844 30.847656 95.578125 C 28.617188 95.925781 26.375 95.867188 23.835938 95.296875 L 27.171875 91.183594 C 29.464844 88.714844 32.28125 86.921875 35.128906 85.160156 C 36.164062 84.523438 37.183594 83.714844 37.917969 82.777344 C 38.964844 81.445312 38.316406 79.992188 36.644531 79.941406 C 35.25 79.890625 33.777344 80.089844 32.449219 80.527344 C 27.132812 82.261719 22.523438 85.230469 18.546875 89.144531 C 11.824219 95.765625 7.960938 103.613281 8.597656 113.285156 C 8.835938 116.871094 9.773438 120.285156 11.355469 123.5625 C 11.867188 121.589844 12.691406 119.777344 14.265625 118.511719 L 18.945312 115.445312 C 21.4375 114.191406 24.054688 113.164062 26.625 112.070312 C 32.738281 109.449219 38.277344 105.972656 42.769531 100.996094 " clip-rule="nonzero"/></clipPath><clipPath id="d171affb87"><path d="M 120.851562 27.441406 L 159.90625 27.441406 L 159.90625 81.9375 L 120.851562 81.9375 Z M 120.851562 27.441406 " clip-rule="nonzero"/></clipPath><clipPath id="0fb997ee01"><path d="M 154.980469 56.25 C 158.257812 58.703125 159.902344 62.085938 159.902344 66.421875 C 159.902344 69.527344 159.023438 72.257812 157.28125 74.617188 C 155.539062 76.976562 153.140625 78.777344 150.101562 80.042969 C 147.0625 81.308594 143.679688 81.9375 139.941406 81.9375 C 135.808594 81.9375 132.066406 80.871094 128.6875 78.730469 C 125.3125 76.589844 122.695312 73.828125 120.851562 70.421875 L 129.007812 66.640625 C 130.074219 68.53125 131.636719 70.175781 133.707031 71.558594 C 135.78125 72.941406 137.921875 73.640625 140.152344 73.640625 C 143.019531 73.640625 145.492188 72.972656 147.582031 71.636719 C 149.671875 70.304688 150.71875 68.441406 150.71875 66.0625 C 150.71875 64.121094 149.761719 62.527344 147.839844 61.289062 C 145.917969 60.054688 143.429688 58.992188 140.371094 58.125 C 128.53125 54.667969 122.605469 49.757812 122.605469 43.394531 C 122.605469 40.4375 123.421875 37.738281 125.042969 35.308594 C 126.667969 32.878906 128.917969 30.964844 131.777344 29.550781 C 134.636719 28.136719 137.800781 27.441406 141.246094 27.441406 C 145.28125 27.441406 148.828125 28.347656 151.882812 30.167969 C 154.941406 31.992188 157.183594 34.339844 158.597656 37.199219 L 150.730469 40.84375 C 148.5 37.398438 145.339844 35.664062 141.257812 35.664062 C 138.679688 35.714844 136.476562 36.402344 134.625 37.746094 C 132.773438 39.09375 131.855469 40.824219 131.855469 42.957031 C 131.855469 44.609375 132.691406 45.945312 134.367188 46.960938 C 136.039062 47.976562 138.390625 48.953125 141.398438 49.878906 C 147.171875 51.671875 151.703125 53.800781 154.980469 56.25 " clip-rule="nonzero"/></clipPath><clipPath id="28f075720e"><path d="M 178 27.242188 L 243 27.242188 L 243 82 L 178 82 Z M 178 27.242188 " clip-rule="nonzero"/></clipPath><clipPath id="0e451b72a2"><path d="M 242.746094 29.191406 L 224.023438 81.9375 L 210.46875 48.710938 L 196.84375 81.9375 L 178.121094 29.191406 L 187.523438 29.191406 L 197.652344 58.992188 L 210.46875 27.441406 L 223.214844 58.992188 L 233.425781 29.191406 Z M 242.746094 29.191406 " clip-rule="nonzero"/></clipPath><clipPath id="c5bc2f008b"><path d="M 251.160156 27.242188 L 299 27.242188 L 299 80.375 L 251.160156 80.375 Z M 251.160156 27.242188 " clip-rule="nonzero"/></clipPath><clipPath id="e63ea2bd37"><path d="M 275.09375 27.441406 L 298.699219 80.195312 L 288.578125 80.195312 L 275.09375 48.710938 L 261.6875 80.195312 L 251.492188 80.195312 Z M 275.09375 27.441406 " clip-rule="nonzero"/></clipPath><clipPath id="1a2a0baac1"><path d="M 123.074219 93.425781 L 140.945312 93.425781 L 140.945312 117.722656 L 123.074219 117.722656 Z M 123.074219 93.425781 " clip-rule="nonzero"/></clipPath><clipPath id="9e56d7f823"><path d="M 138.566406 106.28125 C 140.019531 107.367188 140.746094 108.871094 140.746094 110.792969 C 140.746094 112.175781 140.359375 113.382812 139.582031 114.429688 C 138.804688 115.472656 137.738281 116.28125 136.394531 116.839844 C 135.050781 117.394531 133.546875 117.683594 131.882812 117.683594 C 130.050781 117.683594 128.386719 117.207031 126.882812 116.261719 C 125.378906 115.316406 124.234375 114.078125 123.417969 112.574219 L 127.042969 110.894531 C 127.523438 111.738281 128.21875 112.457031 129.136719 113.074219 C 130.050781 113.691406 131.007812 114 131.992188 114 C 133.269531 114 134.363281 113.699219 135.289062 113.113281 C 136.214844 112.527344 136.683594 111.699219 136.683594 110.644531 C 136.683594 109.777344 136.257812 109.070312 135.410156 108.523438 C 134.5625 107.972656 133.457031 107.507812 132.09375 107.117188 C 126.835938 105.585938 124.207031 103.414062 124.207031 100.585938 C 124.207031 99.269531 124.5625 98.074219 125.289062 97 C 126.019531 95.925781 127.015625 95.066406 128.277344 94.441406 C 129.542969 93.8125 130.949219 93.503906 132.480469 93.503906 C 134.273438 93.503906 135.847656 93.914062 137.203125 94.71875 C 138.554688 95.527344 139.550781 96.570312 140.179688 97.835938 L 136.683594 99.449219 C 135.6875 97.914062 134.292969 97.160156 132.480469 97.160156 C 131.335938 97.179688 130.359375 97.488281 129.535156 98.074219 C 128.707031 98.664062 128.296875 99.441406 128.296875 100.386719 C 128.296875 101.113281 128.667969 101.710938 129.414062 102.160156 C 130.160156 102.605469 131.195312 103.042969 132.53125 103.453125 C 135.089844 104.25 137.101562 105.195312 138.554688 106.28125 " clip-rule="nonzero"/></clipPath><clipPath id="0fa5d689d6"><path d="M 148.226562 93.425781 L 178 93.425781 L 178 117.722656 L 148.226562 117.722656 Z M 148.226562 93.425781 " clip-rule="nonzero"/></clipPath><clipPath id="293b5c23fe"><path d="M 177.515625 94.269531 L 169.199219 117.683594 L 163.195312 102.933594 L 157.140625 117.683594 L 148.835938 94.269531 L 153.007812 94.269531 L 157.5 107.496094 L 163.195312 93.492188 L 168.851562 107.496094 L 173.375 94.269531 Z M 177.515625 94.269531 " clip-rule="nonzero"/></clipPath><clipPath id="a23470218c"><path d="M 181.328125 93.425781 L 202.511719 93.425781 L 202.511719 116.921875 L 181.328125 116.921875 Z M 181.328125 93.425781 " clip-rule="nonzero"/></clipPath><clipPath id="60ae176afa"><path d="M 191.867188 93.492188 L 202.34375 116.90625 L 197.855469 116.90625 L 191.867188 102.933594 L 185.921875 116.90625 L 181.390625 116.90625 Z M 191.867188 93.492188 " clip-rule="nonzero"/></clipPath><clipPath id="f83b67033a"><path d="M 206.480469 94.226562 L 225.679688 94.226562 L 225.679688 116.921875 L 206.480469 116.921875 Z M 206.480469 94.226562 " clip-rule="nonzero"/></clipPath><clipPath id="8f09a490d6"><path d="M 218.289062 107.65625 L 218.289062 116.90625 L 214.246094 116.90625 L 214.246094 107.65625 L 206.875 94.269531 L 211.398438 94.269531 L 216.277344 103.324219 L 221.15625 94.269531 L 225.648438 94.269531 Z M 218.289062 107.65625 " clip-rule="nonzero"/></clipPath><clipPath id="c03c3fc241"><path d="M 230 93.425781 L 251.496094 93.425781 L 251.496094 116.921875 L 230 116.921875 Z M 230 93.425781 " clip-rule="nonzero"/></clipPath><clipPath id="3259b5690e"><path d="M 240.667969 93.492188 L 251.144531 116.90625 L 246.652344 116.90625 L 240.667969 102.933594 L 234.722656 116.90625 L 230.191406 116.90625 Z M 240.667969 93.492188 " clip-rule="nonzero"/></clipPath><clipPath id="2959610bc7"><path d="M 260.101562 93.425781 L 283 93.425781 L 283 116.921875 L 260.101562 116.921875 Z M 260.101562 93.425781 " clip-rule="nonzero"/></clipPath><clipPath id="c8d3e10b2f"><path d="M 282.925781 116.90625 L 278.882812 116.90625 L 278.882812 102.488281 L 271.640625 109.699219 L 264.402344 102.488281 L 264.402344 116.90625 L 260.359375 116.90625 L 260.359375 93.464844 L 271.640625 104.429688 L 282.925781 93.464844 Z M 282.925781 116.90625 " clip-rule="nonzero"/></clipPath><clipPath id="f5d53bd863"><path d="M 315.101562 27.441406 L 354.304688 27.441406 L 354.304688 81.9375 L 315.101562 81.9375 Z M 315.101562 27.441406 " clip-rule="nonzero"/></clipPath><clipPath id="f7ef0ff433"><path d="M 349.238281 56.25 C 352.515625 58.703125 354.160156 62.085938 354.160156 66.421875 C 354.160156 69.527344 353.285156 72.257812 351.53125 74.617188 C 349.777344 76.976562 347.386719 78.777344 344.351562 80.042969 C 341.3125 81.308594 337.925781 81.9375 334.183594 81.9375 C 330.050781 81.9375 326.304688 80.871094 322.929688 78.730469 C 319.550781 76.589844 316.941406 73.828125 315.101562 70.421875 L 323.257812 66.640625 C 324.324219 68.53125 325.894531 70.175781 327.957031 71.558594 C 330.019531 72.941406 332.171875 73.640625 334.402344 73.640625 C 337.269531 73.640625 339.738281 72.972656 341.832031 71.636719 C 343.921875 70.304688 344.976562 68.441406 344.976562 66.050781 C 344.976562 64.109375 344.023438 62.515625 342.097656 61.28125 C 340.175781 60.046875 337.6875 58.980469 334.628906 58.113281 C 322.777344 54.667969 316.851562 49.757812 316.851562 43.394531 C 316.851562 40.4375 317.667969 37.738281 319.292969 35.308594 C 320.917969 32.878906 323.167969 30.964844 326.023438 29.550781 C 328.882812 28.136719 332.050781 27.441406 335.496094 27.441406 C 339.53125 27.441406 343.074219 28.347656 346.132812 30.167969 C 349.191406 31.992188 351.429688 34.339844 352.84375 37.199219 L 344.976562 40.84375 C 342.746094 37.398438 339.589844 35.664062 335.507812 35.664062 C 332.9375 35.714844 330.726562 36.402344 328.875 37.746094 C 327.019531 39.09375 326.105469 40.824219 326.105469 42.957031 C 326.105469 44.609375 326.941406 45.945312 328.613281 46.960938 C 330.289062 47.976562 332.628906 48.953125 335.644531 49.878906 C 341.421875 51.671875 345.953125 53.800781 349.230469 56.25 " clip-rule="nonzero"/></clipPath><clipPath id="39e075064e"><path d="M 405.886719 29.1875 L 414.992188 29.1875 L 414.992188 49.953125 L 405.886719 49.953125 Z M 376.011719 29.1875 L 385.125 29.1875 L 385.125 49.953125 L 376.011719 49.953125 Z M 376.011719 49.953125 L 414.992188 49.953125 L 414.992188 57.601562 L 376.011719 57.601562 Z M 376.011719 57.601562 L 385.125 57.601562 L 385.125 80.191406 L 376.011719 80.191406 Z M 405.886719 57.601562 L 414.992188 57.601562 L 414.992188 80.191406 L 405.886719 80.191406 Z M 405.886719 57.601562 " clip-rule="nonzero"/></clipPath><clipPath id="1b6f0e2b36"><path d="M 312.542969 93.453125 L 330.648438 93.453125 L 330.648438 117.726562 L 312.542969 117.726562 Z M 312.542969 93.453125 " clip-rule="nonzero"/></clipPath><clipPath id="2a18f648d5"><path d="M 328.144531 106.285156 C 329.597656 107.371094 330.324219 108.875 330.324219 110.796875 C 330.324219 112.179688 329.9375 113.386719 329.160156 114.429688 C 328.382812 115.476562 327.316406 116.285156 325.972656 116.839844 C 324.628906 117.398438 323.125 117.6875 321.460938 117.6875 C 319.628906 117.6875 317.964844 117.210938 316.472656 116.265625 C 314.976562 115.316406 313.8125 114.082031 312.996094 112.578125 L 316.621094 110.894531 C 317.097656 111.742188 317.785156 112.460938 318.703125 113.078125 C 319.617188 113.695312 320.574219 114.003906 321.5625 114.003906 C 322.835938 114.003906 323.929688 113.703125 324.855469 113.117188 C 325.785156 112.527344 326.25 111.703125 326.25 110.648438 C 326.25 109.78125 325.824219 109.074219 324.976562 108.527344 C 324.128906 107.976562 323.023438 107.507812 321.660156 107.121094 C 316.402344 105.585938 313.773438 103.417969 313.773438 100.585938 C 313.773438 99.273438 314.132812 98.078125 314.859375 97.003906 C 315.585938 95.925781 316.582031 95.070312 317.847656 94.441406 C 319.109375 93.816406 320.515625 93.496094 322.046875 93.496094 C 323.839844 93.496094 325.414062 93.90625 326.769531 94.710938 C 328.125 95.519531 329.121094 96.5625 329.746094 97.828125 L 326.25 99.441406 C 325.265625 97.910156 323.859375 97.152344 322.046875 97.152344 C 320.902344 97.171875 319.925781 97.480469 319.101562 98.066406 C 318.273438 98.65625 317.875 99.433594 317.875 100.390625 C 317.875 101.117188 318.246094 101.714844 318.992188 102.160156 C 319.738281 102.609375 320.773438 103.046875 322.109375 103.457031 C 324.679688 104.253906 326.691406 105.199219 328.144531 106.285156 " clip-rule="nonzero"/></clipPath><clipPath id="3e41908732"><path d="M 353.28125 94.273438 L 357.324219 94.273438 L 357.324219 103.484375 L 353.28125 103.484375 Z M 340.023438 94.273438 L 344.070312 94.273438 L 344.070312 103.484375 L 340.023438 103.484375 Z M 340.023438 103.484375 L 357.324219 103.484375 L 357.324219 106.882812 L 340.023438 106.882812 Z M 340.023438 106.882812 L 344.070312 106.882812 L 344.070312 116.910156 L 340.023438 116.910156 Z M 353.28125 106.882812 L 357.324219 106.882812 L 357.324219 116.910156 L 353.28125 116.910156 Z M 353.28125 106.882812 " clip-rule="nonzero"/></clipPath><clipPath id="1eeebb4277"><path d="M 366.21875 93.453125 L 387.558594 93.453125 L 387.558594 116.929688 L 366.21875 116.929688 Z M 366.21875 93.453125 " clip-rule="nonzero"/></clipPath><clipPath id="cd60aedec6"><path d="M 377.015625 93.496094 L 387.492188 116.910156 L 383 116.910156 L 377.015625 102.9375 L 371.066406 116.910156 L 366.546875 116.910156 Z M 377.015625 93.496094 " clip-rule="nonzero"/></clipPath><clipPath id="686afa6555"><path d="M 396.613281 94.253906 L 414 94.253906 L 414 116.929688 L 396.613281 116.929688 Z M 396.613281 94.253906 " clip-rule="nonzero"/></clipPath><clipPath id="e60cf476e2"><path d="M 408.933594 94.273438 L 413.625 94.273438 L 405.535156 104.851562 L 413.625 116.910156 L 408.933594 116.910156 L 400.746094 104.851562 Z M 400.746094 116.910156 L 396.714844 116.910156 L 396.714844 94.273438 L 400.757812 94.273438 Z M 400.746094 116.910156 " clip-rule="nonzero"/></clipPath><clipPath id="a6f3698213"><path d="M 422.03125 94.273438 L 441.589844 94.273438 L 441.589844 98.246094 L 422.03125 98.246094 Z M 429.789062 98.246094 L 433.832031 98.246094 L 433.832031 116.910156 L 429.789062 116.910156 Z M 429.789062 98.246094 " clip-rule="nonzero"/></clipPath><clipPath id="285da7d9cd"><path d="M 464.546875 94.273438 L 468.589844 94.273438 L 468.589844 103.484375 L 464.546875 103.484375 Z M 451.289062 94.273438 L 455.332031 94.273438 L 455.332031 103.484375 L 451.289062 103.484375 Z M 451.289062 103.484375 L 468.589844 103.484375 L 468.589844 106.882812 L 451.289062 106.882812 Z M 451.289062 106.882812 L 455.332031 106.882812 L 455.332031 116.910156 L 451.289062 116.910156 Z M 464.546875 106.882812 L 468.589844 106.882812 L 468.589844 116.910156 L 464.546875 116.910156 Z M 464.546875 106.882812 " clip-rule="nonzero"/></clipPath><clipPath id="88a720d7cc"><path d="M 435.757812 27.441406 L 483 27.441406 L 483 80.398438 L 435.757812 80.398438 Z M 435.757812 27.441406 " clip-rule="nonzero"/></clipPath><clipPath id="eef4f4ef83"><path d="M 459.359375 27.441406 L 482.972656 80.195312 L 472.84375 80.195312 L 459.359375 48.710938 L 445.953125 80.195312 L 435.757812 80.195312 Z M 459.359375 27.441406 " clip-rule="nonzero"/></clipPath><clipPath id="ef351e05b0"><path d="M 479.257812 94.273438 L 483.015625 94.273438 L 483.015625 116.910156 L 479.257812 116.910156 Z M 479.257812 94.273438 " clip-rule="nonzero"/></clipPath></defs><g clip-path="url(#88b2283866)"><g clip-path="url(#78fcb933f9)"><path fill="#fcb900" d="M 1.695312 0.625 L 105.691406 0.625 L 105.691406 145.277344 L 1.695312 145.277344 Z M 1.695312 0.625 " fill-opacity="1" fill-rule="nonzero"/></g></g><g clip-path="url(#b038915c01)"><g clip-path="url(#14c3fa9968)"><path fill="#fcb900" d="M 1.695312 0.625 L 105.691406 0.625 L 105.691406 145.277344 L 1.695312 145.277344 Z M 1.695312 0.625 " fill-opacity="1" fill-rule="nonzero"/></g></g><g clip-path="url(#2756ea3adc)"><g clip-path="url(#a7118fa1a1)"><path fill="#4aa223" d="M 1.695312 0.625 L 105.691406 0.625 L 105.691406 145.277344 L 1.695312 145.277344 Z M 1.695312 0.625 " fill-opacity="1" fill-rule="nonzero"/></g></g><g clip-path="url(#2df8ae27f9)"><g clip-path="url(#7975857aa9)"><path fill="#4aa223" d="M 1.695312 0.625 L 105.691406 0.625 L 105.691406 145.277344 L 1.695312 145.277344 Z M 1.695312 0.625 " fill-opacity="1" fill-rule="nonzero"/></g></g><g clip-path="url(#8745f82925)"><g clip-path="url(#20b639c202)"><path fill="#00b1e3" d="M 1.695312 0.625 L 105.691406 0.625 L 105.691406 145.277344 L 1.695312 145.277344 Z M 1.695312 0.625 " fill-opacity="1" fill-rule="nonzero"/></g></g><g clip-path="url(#eda56f2bb1)"><g clip-path="url(#c02f2494de)"><path fill="#dc0019" d="M 1.695312 0.625 L 105.691406 0.625 L 105.691406 145.277344 L 1.695312 145.277344 Z M 1.695312 0.625 " fill-opacity="1" fill-rule="nonzero"/></g></g><g clip-path="url(#16a7cf4053)"><g clip-path="url(#6f60bf62a9)"><path fill="#00b1e3" d="M 1.695312 0.625 L 105.691406 0.625 L 105.691406 145.277344 L 1.695312 145.277344 Z M 1.695312 0.625 " fill-opacity="1" fill-rule="nonzero"/></g></g><g clip-path="url(#bfd510983a)"><g clip-path="url(#3155d8f252)"><path fill="#dc0019" d="M 1.695312 0.625 L 105.691406 0.625 L 105.691406 145.277344 L 1.695312 145.277344 Z M 1.695312 0.625 " fill-opacity="1" fill-rule="nonzero"/></g></g><g clip-path="url(#d171affb87)"><g clip-path="url(#0fb997ee01)"><path fill="#ffffff" d="M 120.851562 27.441406 L 159.90625 27.441406 L 159.90625 81.9375 L 120.851562 81.9375 Z M 120.851562 27.441406 " fill-opacity="1" fill-rule="nonzero"/></g></g><g clip-path="url(#28f075720e)"><g clip-path="url(#0e451b72a2)"><path fill="#ffffff" d="M 173.140625 22.460938 L 303.683594 22.460938 L 303.683594 86.921875 L 173.140625 86.921875 Z M 173.140625 22.460938 " fill-opacity="1" fill-rule="nonzero"/></g></g><g clip-path="url(#c5bc2f008b)"><g clip-path="url(#e63ea2bd37)"><path fill="#ffffff" d="M 173.140625 22.460938 L 303.683594 22.460938 L 303.683594 86.921875 L 173.140625 86.921875 Z M 173.140625 22.460938 " fill-opacity="1" fill-rule="nonzero"/></g></g><g clip-path="url(#1a2a0baac1)"><g clip-path="url(#9e56d7f823)"><path fill="#00b1e3" d="M 118.4375 88.484375 L 287.90625 88.484375 L 287.90625 122.664062 L 118.4375 122.664062 Z M 118.4375 88.484375 " fill-opacity="1" fill-rule="nonzero"/></g></g><g clip-path="url(#0fa5d689d6)"><g clip-path="url(#293b5c23fe)"><path fill="#00b1e3" d="M 118.4375 88.484375 L 287.90625 88.484375 L 287.90625 122.664062 L 118.4375 122.664062 Z M 118.4375 88.484375 " fill-opacity="1" fill-rule="nonzero"/></g></g><g clip-path="url(#a23470218c)"><g clip-path="url(#60ae176afa)"><path fill="#00b1e3" d="M 118.4375 88.484375 L 287.90625 88.484375 L 287.90625 122.664062 L 118.4375 122.664062 Z M 118.4375 88.484375 " fill-opacity="1" fill-rule="nonzero"/></g></g><g clip-path="url(#f83b67033a)"><g clip-path="url(#8f09a490d6)"><path fill="#00b1e3" d="M 118.4375 88.484375 L 287.90625 88.484375 L 287.90625 122.664062 L 118.4375 122.664062 Z M 118.4375 88.484375 " fill-opacity="1" fill-rule="nonzero"/></g></g><g clip-path="url(#c03c3fc241)"><g clip-path="url(#3259b5690e)"><path fill="#00b1e3" d="M 118.4375 88.484375 L 287.90625 88.484375 L 287.90625 122.664062 L 118.4375 122.664062 Z M 118.4375 88.484375 " fill-opacity="1" fill-rule="nonzero"/></g></g><g clip-path="url(#2959610bc7)"><g clip-path="url(#c8d3e10b2f)"><path fill="#00b1e3" d="M 118.4375 88.484375 L 287.90625 88.484375 L 287.90625 122.664062 L 118.4375 122.664062 Z M 118.4375 88.484375 " fill-opacity="1" fill-rule="nonzero"/></g></g><g clip-path="url(#f5d53bd863)"><g clip-path="url(#f7ef0ff433)"><path fill="#00b1e3" d="M 315.101562 27.441406 L 354.152344 27.441406 L 354.152344 81.9375 L 315.101562 81.9375 Z M 315.101562 27.441406 " fill-opacity="1" fill-rule="nonzero"/></g></g><g clip-path="url(#39e075064e)"><path fill="#00b1e3" d="M 376.011719 29.1875 L 414.992188 29.1875 L 414.992188 80.191406 L 376.011719 80.191406 Z M 376.011719 29.1875 " fill-opacity="1" fill-rule="nonzero"/></g><g clip-path="url(#1b6f0e2b36)"><g clip-path="url(#2a18f648d5)"><path fill="#ffffff" d="M 308.015625 88.515625 L 473.570312 88.515625 L 473.570312 122.664062 L 308.015625 122.664062 Z M 308.015625 88.515625 " fill-opacity="1" fill-rule="nonzero"/></g></g><g clip-path="url(#3e41908732)"><path fill="#ffffff" d="M 308.015625 88.515625 L 473.570312 88.515625 L 473.570312 122.664062 L 308.015625 122.664062 Z M 308.015625 88.515625 " fill-opacity="1" fill-rule="nonzero"/></g><g clip-path="url(#1eeebb4277)"><g clip-path="url(#cd60aedec6)"><path fill="#ffffff" d="M 308.015625 88.515625 L 473.570312 88.515625 L 473.570312 122.664062 L 308.015625 122.664062 Z M 308.015625 88.515625 " fill-opacity="1" fill-rule="nonzero"/></g></g><g clip-path="url(#686afa6555)"><g clip-path="url(#e60cf476e2)"><path fill="#ffffff" d="M 308.015625 88.515625 L 473.570312 88.515625 L 473.570312 122.664062 L 308.015625 122.664062 Z M 308.015625 88.515625 " fill-opacity="1" fill-rule="nonzero"/></g></g><g clip-path="url(#a6f3698213)"><path fill="#ffffff" d="M 308.015625 88.515625 L 473.570312 88.515625 L 473.570312 122.664062 L 308.015625 122.664062 Z M 308.015625 88.515625 " fill-opacity="1" fill-rule="nonzero"/></g><g clip-path="url(#285da7d9cd)"><path fill="#ffffff" d="M 308.015625 88.515625 L 473.570312 88.515625 L 473.570312 122.664062 L 308.015625 122.664062 Z M 308.015625 88.515625 " fill-opacity="1" fill-rule="nonzero"/></g><g clip-path="url(#88a720d7cc)"><g clip-path="url(#eef4f4ef83)"><path fill="#00b1e3" d="M 435.757812 27.441406 L 482.972656 27.441406 L 482.972656 80.191406 L 435.757812 80.191406 Z M 435.757812 27.441406 " fill-opacity="1" fill-rule="nonzero"/></g></g><g clip-path="url(#ef351e05b0)"><path fill="#ffffff" d="M 479.257812 94.273438 L 483.300781 94.273438 L 483.300781 116.90625 L 479.257812 116.90625 Z M 479.257812 94.273438 " fill-opacity="1" fill-rule="nonzero"/></g></svg>