<svg xmlns="http://www.w3.org/2000/svg" xmlns:xlink="http://www.w3.org/1999/xlink" width="1333" zoomAndPan="magnify" viewBox="0 0 999.75 999.74997" height="1333" preserveAspectRatio="xMidYMid meet" version="1.0"><defs><clipPath id="3f8ec1ff31"><path d="M 433 34 L 565 34 L 565 218 L 433 218 Z M 433 34 " clip-rule="nonzero"/></clipPath><clipPath id="6a1fdf0c82"><path d="M 521.28125 212.484375 C 548.125 201.609375 564.714844 175.316406 564.785156 144.136719 C 565.058594 135.117188 563.683594 126.308594 560.722656 117.839844 C 549.914062 86.933594 526.855469 64.21875 507.445312 39.097656 C 500.769531 30.425781 494.023438 35.242188 488.515625 41.710938 C 471.859375 61.054688 455.820312 81.015625 443.433594 103.316406 C 426.84375 133.191406 432.144531 176.832031 454.515625 197.753906 C 473.648438 215.582031 495.746094 222.878906 521.28125 212.554688 " clip-rule="nonzero"/></clipPath><clipPath id="f91aa252e3"><path d="M 315 162 L 685 162 L 685 357 L 315 357 Z M 315 162 " clip-rule="nonzero"/></clipPath><clipPath id="58fa544f58"><path d="M 362.96875 244.5625 L 431.179688 276.292969 C 458.09375 289.507812 481.015625 307.199219 491.820312 336.726562 L 498.703125 356.621094 C 503.730469 350.839844 503.660156 344.917969 505.382812 339.757812 C 515.085938 310.984375 535.738281 292.261719 561.824219 279.183594 L 634.925781 244.835938 C 662.664062 230.519531 679.664062 207.738281 682.625 175.867188 L 684.207031 167.539062 L 674.363281 167.195312 C 660.324219 176.898438 648.554688 183.164062 635.679688 187.636719 L 577.929688 208.21875 C 541.105469 221.777344 515.636719 246.074219 505.933594 285.171875 L 500.699219 301.003906 L 498.5 294.050781 C 484.664062 246.558594 455.546875 219.851562 411.976562 204.84375 C 383.273438 194.933594 352.367188 189.21875 327.519531 169.535156 L 321.875 162.996094 L 315.542969 172.839844 C 318.914062 208.082031 335.433594 230.589844 362.898438 244.628906 " clip-rule="nonzero"/></clipPath><clipPath id="60635d865f"><path d="M 434 782 L 567 782 L 567 966 L 434 966 Z M 434 782 " clip-rule="nonzero"/></clipPath><clipPath id="a0b1f78205"><path d="M 522.519531 787.238281 C 496.984375 776.910156 474.886719 784.140625 455.753906 801.96875 C 433.3125 822.890625 428.015625 866.53125 444.671875 896.40625 C 457.0625 918.707031 473.097656 938.667969 489.757812 958.011719 C 495.332031 964.480469 502.078125 969.296875 508.683594 960.625 C 528.097656 935.5 551.15625 912.789062 561.960938 881.882812 C 564.921875 873.347656 566.296875 864.605469 566.023438 855.585938 C 565.953125 824.40625 549.367188 798.113281 522.519531 787.238281 " clip-rule="nonzero"/></clipPath><clipPath id="5bd3883f3d"><path d="M 315 647 L 685 647 L 685 842 L 315 842 Z M 315 647 " clip-rule="nonzero"/></clipPath><clipPath id="72e89771ae"><path d="M 636.164062 759.636719 L 563.0625 725.289062 C 536.976562 712.210938 516.257812 693.488281 506.621094 664.714844 C 504.898438 659.550781 504.96875 653.703125 499.945312 647.851562 L 493.058594 667.742188 C 482.183594 697.273438 459.332031 714.960938 432.417969 728.109375 L 364.207031 759.910156 C 336.742188 773.953125 320.222656 796.527344 317.195312 827.777344 L 315.199219 836.933594 L 326.074219 837.140625 C 353.605469 815.320312 384.511719 809.605469 413.214844 799.695312 C 456.785156 784.691406 485.96875 757.984375 496.089844 712.210938 L 495.332031 703.261719 L 505.792969 713.929688 C 516.808594 758.394531 542.34375 782.695312 579.167969 796.253906 L 636.921875 816.835938 C 649.792969 821.308594 661.5625 827.574219 672.714844 835.28125 L 678.425781 841.753906 L 684.207031 832.183594 C 680.902344 796.667969 663.902344 773.882812 636.164062 759.566406 " clip-rule="nonzero"/></clipPath><clipPath id="0cd1ee41fb"><path d="M 500 166 L 825 166 L 825 500 L 500 500 Z M 500 166 " clip-rule="nonzero"/></clipPath><clipPath id="115d317e7c"><path d="M 810.308594 167.261719 L 809.621094 166.230469 C 802.324219 190.046875 785.460938 204.84375 763.710938 214.414062 L 702.3125 238.230469 C 657.433594 254.679688 616.203125 276.980469 582.335938 311.46875 C 539.109375 355.449219 513.984375 408.933594 501.042969 468.542969 L 500.632812 489.46875 C 502.214844 500 510.476562 502.957031 519.078125 496.488281 C 529.265625 488.847656 534.085938 477.765625 537.734375 466.066406 C 545.511719 441.148438 557.761719 418.707031 575.109375 399.226562 C 609.316406 360.886719 651.375 344.023438 702.792969 353.386719 L 707.816406 354.554688 C 704.511719 364.675781 698.179688 372.933594 690.816406 380.367188 C 674.363281 396.886719 654.609375 408.796875 634.234375 419.808594 L 613.449219 433.574219 C 608.835938 437.292969 605.394531 442.800781 607.460938 449.269531 C 609.664062 456.222656 616.0625 457.804688 622.328125 458.148438 L 638.710938 457.046875 C 725.300781 432.886719 787.800781 381.605469 816.574219 294.601562 C 830.683594 251.925781 825.726562 209.042969 810.378906 167.195312 " clip-rule="nonzero"/></clipPath><clipPath id="5020e4840a"><path d="M 500 499 L 812 499 L 812 850 L 500 850 Z M 500 499 " clip-rule="nonzero"/></clipPath><clipPath id="0bc5d40d5b"><path d="M 646.625 552.175781 C 637.472656 549.214844 627.285156 547.835938 617.648438 548.179688 C 606.015625 548.59375 601.539062 558.644531 608.769531 567.800781 C 613.929688 574.339844 620.949219 579.84375 628.109375 584.25 C 647.796875 596.363281 667.273438 608.824219 683.105469 625.894531 L 706.164062 654.320312 C 688.683594 658.246094 673.195312 658.65625 657.707031 656.25 C 614.273438 649.433594 583.4375 624.308594 560.378906 588.3125 C 549.984375 572.066406 543.03125 554.445312 537.59375 535.929688 L 525.480469 509.085938 C 524.035156 506.332031 521.074219 504.128906 518.390625 502.339844 C 511.507812 497.726562 503.9375 499.65625 502.351562 507.640625 C 500.5625 516.242188 499.804688 525.671875 501.25 534.277344 C 511.578125 593.886719 534.289062 647.988281 575.246094 693.488281 C 606.289062 727.972656 644.5625 751.925781 686.824219 770.097656 L 739.894531 793.429688 C 751.320312 799.214844 762.195312 806.578125 772.246094 814.632812 C 783.121094 823.375 788.832031 835.902344 792.34375 849.53125 C 803.289062 826.882812 809.828125 803.273438 811.410156 778.496094 C 815.816406 711.726562 789.109375 657.417969 742.648438 611.644531 C 715.183594 584.59375 683.3125 564.082031 646.558594 552.105469 " clip-rule="nonzero"/></clipPath><clipPath id="871e7420fd"><path d="M 174 164.023438 L 499.875 164.023438 L 499.875 500 L 174 500 Z M 174 164.023438 " clip-rule="nonzero"/></clipPath><clipPath id="76a8124081"><path d="M 361.109375 457.117188 L 377.492188 458.21875 C 383.753906 457.875 390.085938 456.359375 392.359375 449.339844 C 394.421875 442.800781 391.050781 437.363281 386.371094 433.644531 L 365.582031 419.878906 C 345.207031 408.863281 325.453125 396.957031 309.003906 380.4375 L 287.527344 355.726562 C 292 354.625 294.480469 353.9375 297.027344 353.453125 C 348.445312 344.09375 390.5 360.957031 424.710938 399.296875 C 442.054688 418.777344 454.375 441.214844 462.15625 466.132812 C 465.800781 477.765625 470.691406 488.917969 480.808594 496.558594 C 489.414062 503.027344 497.671875 500.066406 499.253906 489.535156 L 498.84375 468.609375 C 485.902344 409.003906 460.777344 355.519531 417.550781 311.535156 C 383.6875 277.050781 342.453125 254.679688 297.578125 238.296875 L 236.175781 214.480469 C 214.425781 204.984375 197.5625 190.113281 191.4375 164.578125 L 189.785156 166.78125 C 174.089844 209.113281 169.136719 251.925781 183.246094 294.671875 C 211.949219 381.675781 274.515625 432.957031 361.109375 457.117188 " clip-rule="nonzero"/></clipPath><clipPath id="58e2e826d4"><path d="M 187 499 L 500 499 L 500 850 L 187 850 Z M 187 499 " clip-rule="nonzero"/></clipPath><clipPath id="0f0cd30bc4"><path d="M 424.433594 693.488281 C 465.390625 647.988281 488.105469 593.957031 498.429688 534.277344 C 499.945312 525.671875 499.117188 516.242188 497.328125 507.640625 C 495.675781 499.585938 488.171875 497.660156 481.289062 502.339844 L 475.644531 506.332031 C 469.726562 517.828125 464.839844 526.566406 462.085938 535.929688 C 456.648438 554.445312 449.695312 572.136719 439.300781 588.3125 C 416.175781 624.308594 385.335938 649.433594 341.972656 656.25 C 326.554688 658.65625 311.066406 658.246094 293.515625 654.320312 L 316.574219 625.894531 C 332.40625 608.824219 351.886719 596.433594 371.570312 584.25 C 378.730469 579.84375 385.75 574.269531 390.84375 567.800781 C 398.070312 558.574219 393.597656 548.527344 382.035156 548.179688 C 372.398438 547.835938 362.210938 549.214844 353.054688 552.242188 C 316.296875 564.21875 284.429688 584.730469 256.964844 611.78125 C 210.503906 657.554688 183.796875 711.796875 188.203125 778.632812 C 189.851562 803.414062 196.324219 827.023438 207.269531 849.667969 C 210.777344 836.039062 216.492188 823.511719 227.367188 814.769531 L 259.71875 793.570312 C 276.925781 784.894531 295.03125 777.804688 312.789062 770.234375 C 355.050781 752.132812 393.320312 728.109375 424.367188 693.695312 " clip-rule="nonzero"/></clipPath></defs><g clip-path="url(#3f8ec1ff31)"><g clip-path="url(#6a1fdf0c82)"><path fill="#ffffff" d="M 140.5 0 L 859.25 0 L 859.25 999.75 L 140.5 999.75 Z M 140.5 0 " fill-opacity="1" fill-rule="nonzero"/></g></g><g clip-path="url(#f91aa252e3)"><g clip-path="url(#58fa544f58)"><path fill="#ffffff" d="M 140.5 0 L 859.25 0 L 859.25 999.75 L 140.5 999.75 Z M 140.5 0 " fill-opacity="1" fill-rule="nonzero"/></g></g><g clip-path="url(#60635d865f)"><g clip-path="url(#a0b1f78205)"><path fill="#ffffff" d="M 140.5 0 L 859.25 0 L 859.25 999.75 L 140.5 999.75 Z M 140.5 0 " fill-opacity="1" fill-rule="nonzero"/></g></g><g clip-path="url(#5bd3883f3d)"><g clip-path="url(#72e89771ae)"><path fill="#ffffff" d="M 140.5 0 L 859.25 0 L 859.25 999.75 L 140.5 999.75 Z M 140.5 0 " fill-opacity="1" fill-rule="nonzero"/></g></g><g clip-path="url(#0cd1ee41fb)"><g clip-path="url(#115d317e7c)"><path fill="#ffffff" d="M 140.5 0 L 859.25 0 L 859.25 999.75 L 140.5 999.75 Z M 140.5 0 " fill-opacity="1" fill-rule="nonzero"/></g></g><g clip-path="url(#5020e4840a)"><g clip-path="url(#0bc5d40d5b)"><path fill="#ffffff" d="M 140.5 0 L 859.25 0 L 859.25 999.75 L 140.5 999.75 Z M 140.5 0 " fill-opacity="1" fill-rule="nonzero"/></g></g><g clip-path="url(#871e7420fd)"><g clip-path="url(#76a8124081)"><path fill="#ffffff" d="M 140.5 0 L 859.25 0 L 859.25 999.75 L 140.5 999.75 Z M 140.5 0 " fill-opacity="1" fill-rule="nonzero"/></g></g><g clip-path="url(#58e2e826d4)"><g clip-path="url(#0f0cd30bc4)"><path fill="#ffffff" d="M 140.5 0 L 859.25 0 L 859.25 999.75 L 140.5 999.75 Z M 140.5 0 " fill-opacity="1" fill-rule="nonzero"/></g></g></svg>