<svg xmlns="http://www.w3.org/2000/svg" width="25.297" height="38.52" viewBox="0 0 25.297 38.52">
  <g id="Component_100_32" data-name="Component 100 – 32" transform="translate(1 1)">
    <g id="Icon_feather-shopping-cart" data-name="Icon feather-shopping-cart">
      <path id="Path_11" data-name="Path 11" d="M32.007,31.794A1.754,1.754,0,1,1,30.253,30,1.774,1.774,0,0,1,32.007,31.794Z" transform="translate(-9.702 -13.205)" fill="none" stroke="#a5adb7" stroke-linecap="round" stroke-linejoin="round" stroke-width="1.5"/>
      <path id="Path_15169" data-name="Path 15169" d="M32.007,31.794A1.754,1.754,0,1,1,30.253,30,1.774,1.774,0,0,1,32.007,31.794Z" transform="translate(-22.702 -13.205)" fill="none" stroke="#a5adb7" stroke-linecap="round" stroke-linejoin="round" stroke-width="1.5"/>
      <path id="Path_12" data-name="Path 12" d="M1.5,1.5H5.677l2.8,12.541a2.05,2.05,0,0,0,2.089,1.508H20.716A2.05,2.05,0,0,0,22.8,14.041l1.671-7.858H6.722" transform="translate(-1.5 -1.5)" fill="none" stroke="#a5adb7" stroke-linecap="round" stroke-linejoin="round" stroke-width="2"/>
    </g>
    <text id="Cart" transform="translate(2.297 34.52)" fill="#a5adb7" font-size="11" font-family="OpenSans, Open Sans"><tspan x="0" y="0">Cart</tspan></text>
  </g>
</svg>
