<svg id="Component_98_32" data-name="Component 98 – 32" xmlns="http://www.w3.org/2000/svg" width="35" height="38.135" viewBox="0 0 35 38.135">
  <path id="Path_15168" data-name="Path 15168" d="M18.209,13.791a10.626,10.626,0,0,0-4.053-2.542,6.167,6.167,0,1,0-6.978,0A10.684,10.684,0,0,0,0,21.333H21.333A10.6,10.6,0,0,0,18.209,13.791Z" transform="translate(6.879 0.167)" fill="none"/>
  <path id="Path_15171" data-name="Path 15171" d="M18.209,13.791a10.626,10.626,0,0,0-4.053-2.542,6.167,6.167,0,1,0-6.978,0A10.684,10.684,0,0,0,0,21.333H1.667a9,9,0,1,1,18,0h1.667A10.6,10.6,0,0,0,18.209,13.791Zm-7.542-3.124a4.5,4.5,0,1,1,4.5-4.5A4.505,4.505,0,0,1,10.667,10.667Z" transform="translate(6.976)" fill="#a5acb7"/>
  <text id="Profile" transform="translate(0 35.135)" fill="#84888e" font-size="11" font-family="OpenSans-Semibold, Open Sans" font-weight="600"><tspan x="0" y="0">Profile</tspan></text>
</svg>
