<?xml version="1.0" encoding="UTF-8"?>
<svg width="26" height="30" version="1.1" viewBox="0 0 26 30" xmlns="http://www.w3.org/2000/svg">
 <g transform="translate(-849,-484)" data-name="Group 191">
  <ellipse transform="translate(849,509)" cx="13" cy="2.5" rx="13" ry="2.5" fill="#ff0" data-name="Ellipse 40"/>
  <path id="Icon_material-location-on" transform="translate(843.5,481)" d="m18 3c-5.805 0-10.5 4.3-10.5 9.625 0 7.219 10.5 17.875 10.5 17.875s10.5-10.656 10.5-17.875c0-5.325-4.695-9.625-10.5-9.625zm0 13.063a3.605 3.605 0 0 1-3.75-3.437 3.605 3.605 0 0 1 3.75-3.438 3.605 3.605 0 0 1 3.75 3.438 3.605 3.605 0 0 1-3.75 3.437z" fill="#3f78ff" data-name="Icon material-location-on"/>
 </g>
</svg>
