<?xml version="1.0" encoding="UTF-8"?>
<svg width="666.77" height="666.77" version="1.1" viewBox="0 0 20.003 20.003" xmlns="http://www.w3.org/2000/svg" xmlns:cc="http://creativecommons.org/ns#" xmlns:dc="http://purl.org/dc/elements/1.1/" xmlns:rdf="http://www.w3.org/1999/02/22-rdf-syntax-ns#">
 <!-- Uploaded to: SVG Repo, www.svgrepo.com, Generator: SVG Repo Mixer Tools -->
 <title>ic_fluent_radio_button_24_filled</title>
 <desc>Created with Sketch.</desc>
 <g id="ðŸ”-Product-Icons" transform="translate(-1.9984 -1.999)" fill="none" fill-rule="evenodd">
  <g id="ic_fluent_radio_button_24_filled" fill="#212121" fill-rule="nonzero">
   <path id="ðŸŽ¨-Color" d="m12 1.999c5.5237 0 10.002 4.4778 10.002 10.002 0 5.5237-4.4778 10.002-10.002 10.002-5.5237 0-10.002-4.4778-10.002-10.002 0-5.5237 4.4778-10.002 10.002-10.002zm0 1.5c-4.6953 0-8.5016 3.8063-8.5016 8.5016 0 4.6953 3.8063 8.5016 8.5016 8.5016 4.6953 0 8.5016-3.8063 8.5016-8.5016 0-4.6953-3.8063-8.5016-8.5016-8.5016zm-0.0034 2.5c3.3127 0 5.9981 2.6854 5.9981 5.9981 0 3.3127-2.6854 5.9981-5.9981 5.9981-3.3127 0-5.9981-2.6854-5.9981-5.9981 0-3.3127 2.6854-5.9981 5.9981-5.9981z"/>
  </g>
 </g>
 <metadata>
  <rdf:RDF>
   <cc:Work rdf:about="">
    <dc:title>ic_fluent_radio_button_24_filled</dc:title>
   </cc:Work>
  </rdf:RDF>
 </metadata>
</svg>
