<?xml version="1.0" encoding="UTF-8"?>
<svg width="799.35" height="799.52" fill="#000000" version="1.1" viewBox="0 0 329.73 329.8" xml:space="preserve" xmlns="http://www.w3.org/2000/svg">
<g id="XMLID_17_" transform="translate(9.968 16.068)">
	
	<path id="XMLID_19_" d="m303.7 276.39-78.586-78.586c16.706-21.256 26.682-48.04 26.682-77.111 0-68.929-56.077-125.01-125.01-125.01-68.928 2.9e-6 -125 56.077-125 125 7e-7 68.923 56.077 125 125 125 29.07 0 55.855-9.975 77.111-26.681l78.586 78.586c2.9283 2.9297 6.767 4.394 10.606 4.394 3.839 0 7.678-1.464 10.606-4.394 5.858-5.857 5.858-15.355 1e-5 -21.212zm-271.92-155.7c-5e-6 -52.386 42.619-95.005 95.005-95.005 52.386 0 95.006 42.619 95.006 95.005 0 52.386-42.62 95.005-95.006 95.005-52.386 0-95.005-42.619-95.005-95.005z"  stroke="#000" stroke-width="10.545"/>
</g>
</svg>
