<?xml version="1.0" encoding="UTF-8"?>
<svg width="20" height="20" version="1.1" viewBox="0 0 20 20" xmlns="http://www.w3.org/2000/svg">
 <path id="Icon_awesome-star-half-alt" d="m18.972 6.6974-5.4607-0.83216-2.4394-5.169a1.1747 1.1752 0 0 0-2.1455 0l-2.4404 5.168-5.4607 0.83316a1.2657 1.2662 0 0 0-0.66184 2.1314l3.95 4.0238-0.93477 5.6841a1.2357 1.2362 0 0 0 1.1797 1.4633 1.1367 1.1372 0 0 0 0.55487-0.14603l4.8858-2.6835 4.8848 2.6845a1.1427 1.1432 0 0 0 0.55287 0.14503 1.2347 1.2352 0 0 0 1.1807-1.4613l-0.93377-5.6841 3.951-4.0238a1.2657 1.2662 0 0 0-0.66284-2.1334zm-4.5409 4.8139-0.67584 0.68813 0.15996 0.97219 0.72782 4.4329-3.8101-2.0934-0.8338-0.46009v-12.392l1.8995 4.0388 0.4169 0.88417 0.93277 0.14203 4.261 0.65013-3.0833 3.1406z" fill="#fcba08" stroke-width=".99998" data-name="Icon awesome-star-half-alt"/>
</svg>
