<?xml version="1.0" encoding="UTF-8"?>
<svg width="731.9" height="170.24" version="1.1" viewBox="0 0 731.9 170.24" xmlns="http://www.w3.org/2000/svg">
 <defs>
  <clipPath id="clip-path">
   <rect width="127.9" height="170.24" fill="#fff" data-name="Rectangle 98"/>
  </clipPath>
  <clipPath id="clip-path-2">
   <rect width="560.72" height="105.76" fill="#fff" data-name="Rectangle 1026"/>
  </clipPath>
 </defs>
 <g transform="translate(-596.06 -449.88)" data-name="Group 253">
  <g data-name="Group 252">
   <g data-name="Group 244">
    <g data-name="Group 254">
     <g data-name="Group 179">
      <g data-name="Group 178">
       <g transform="translate(596.06 449.88)" data-name="Group 177">
        <g clip-path="url(#clip-path)" fill="#fff" fill-rule="evenodd" data-name="Group 114">
         <path d="m127.9 84.078-21.316 13.51-63.951-36.055 19.519-13.333 44.429 25.651v-26.691l-42.632-24.615-42.633 24.615v26.686l62.152 35.882-21.316 12.313-62.152-35.882v-51.312l63.949-34.847 63.951 36.918z" data-name="Path 39"/>
         <path transform="translate(0,1.644)" d="m127.9 109.12v22.545l-63.951 36.928-21.316-12.313-42.633-22.545v-24.615l63.949 36.918 63.951-36.918" data-name="Path 40"/>
        </g>
       </g>
      </g>
     </g>
    </g>
   </g>
   <g transform="translate(767.27 480.64)" data-name="Group 251">
    <g clip-path="url(#clip-path-2)" fill="#fff" data-name="Group 250">
     <path d="m0.284 94.619a5.913 5.913 0 0 1 7.9-3.6 49.842 49.842 0 0 0 18.675 3.781c14 0 22.185-7.151 22.185-17.5 0-9.586-5.663-15.067-19.982-20.391-17.308-5.931-28.008-14.609-28.008-29.063 0-15.978 13.689-27.846 34.301-27.846a56.321 56.321 0 0 1 18.188 2.74 5.619 5.619 0 0 1 3.547 7.171 5.922 5.922 0 0 1-7.582 3.517 44.141 44.141 0 0 0-14.624-2.472c-14.476 0-19.983 8.369-19.983 15.369 0 9.588 6.452 14.3 21.084 19.782 17.937 6.693 27.064 15.066 27.064 30.133 0 15.824-12.117 29.52-37.135 29.52a63.146 63.146 0 0 1-22.354-4.168 5.615 5.615 0 0 1-3.306-6.875z" data-name="Path 175"/>
     <path transform="translate(29.434 .633)" d="m68.514 99.317-23.921-91.187a5.735 5.735 0 0 1 5.7-7.089h2.251a5.848 5.848 0 0 1 5.728 4.39l11.528 47.501c3.146 12.783 5.978 25.566 7.867 35.459h0.314c1.731-10.2 5.035-22.371 8.655-35.61l13-47.506a5.851 5.851 0 0 1 5.687-4.234h5.151a5.846 5.846 0 0 1 5.72 4.363l11.821 47.681c2.99 12.175 5.821 24.349 7.4 35.154h0.314c2.2-11.263 5.193-22.676 8.5-35.458l12.846-47.491a5.855 5.855 0 0 1 5.692-4.249h1.681a5.731 5.731 0 0 1 5.66 7.241l-26.719 91.187a5.86 5.86 0 0 1-5.66 4.138h-5.243a5.847 5.847 0 0 1-5.717-4.35l-12.286-49.064a300.06 300.06 0 0 1-6.924-33.478h-0.314a311.66 311.66 0 0 1-8.181 33.478l-13.921 49.225a5.856 5.856 0 0 1-5.675 4.189h-5.252a5.85 5.85 0 0 1-5.7-4.29" data-name="Path 176"/>
     <path transform="translate(79.925 .633)" d="m141.61 75.782-7.985 23.387a6.667 6.667 0 0 1-6.347 4.437 6.5 6.5 0 0 1-6.329-8.542l31.492-89.639a6.67 6.67 0 0 1 6.329-4.384h6.952a6.673 6.673 0 0 1 6.325 4.376l31.628 89.638a6.5 6.5 0 0 1-6.325 8.55h-0.5a6.667 6.667 0 0 1-6.327-4.384l-8.253-23.491a6.667 6.667 0 0 0-6.329-4.385h-27.985a6.667 6.667 0 0 0-6.347 4.437" data-name="Path 177"/>
     <path transform="translate(118.78)" d="m179.49 94.619a5.913 5.913 0 0 1 7.9-3.6 49.842 49.842 0 0 0 18.675 3.781c14 0 22.185-7.151 22.185-17.5 0-9.586-5.663-15.067-19.982-20.391-17.308-5.936-28.008-14.61-28.008-29.067 0-15.978 13.69-27.846 34.3-27.846a56.321 56.321 0 0 1 18.187 2.74 5.621 5.621 0 0 1 3.549 7.175 5.925 5.925 0 0 1-7.584 3.515 44.141 44.141 0 0 0-14.624-2.472c-14.476 0-19.982 8.369-19.982 15.369 0 9.588 6.45 14.3 21.082 19.782 17.938 6.7 27.063 15.067 27.063 30.133 0 15.824-12.115 29.52-37.133 29.52a63.146 63.146 0 0 1-22.354-4.168 5.617 5.617 0 0 1-3.307-6.875z" data-name="Path 178"/>
     <path transform="translate(151.37 .633)" d="m242.07 7.66v29.673a6.735 6.735 0 0 0 6.844 6.621h37.605a6.735 6.735 0 0 0 6.844-6.621v-29.673a6.735 6.735 0 0 1 6.846-6.619h0.158a6.735 6.735 0 0 1 6.844 6.619v89.327a6.735 6.735 0 0 1-6.844 6.619h-0.158a6.735 6.735 0 0 1-6.846-6.619v-34.849a6.735 6.735 0 0 0-6.844-6.619h-37.605a6.735 6.735 0 0 0-6.844 6.619v34.849a6.849 6.849 0 0 1-13.69 0v-89.327a6.849 6.849 0 0 1 13.69 0" data-name="Path 179"/>
     <path transform="translate(189.98 .633)" d="m308.17 75.25-8.35 24.45a5.868 5.868 0 0 1-5.585 3.9h-1.7a5.719 5.719 0 0 1-5.569-7.52l32.038-91.18a5.873 5.873 0 0 1 5.57-3.858h8.1a5.868 5.868 0 0 1 5.565 3.851l32.176 91.187a5.721 5.721 0 0 1-5.567 7.526h-2.2a5.871 5.871 0 0 1-5.57-3.859l-8.615-24.547a5.872 5.872 0 0 0-5.57-3.859h-29.139a5.866 5.866 0 0 0-5.584 3.9" data-name="Path 180"/>
    </g>
   </g>
  </g>
 </g>
</svg>
