<?xml version="1.0" encoding="UTF-8"?>
<svg width="48.6" height="25.8" version="1.1" viewBox="0 0 48.6 25.8" xmlns="http://www.w3.org/2000/svg">
 <g fill="#3594ac" stroke="#fff" stroke-linecap="round" stroke-linejoin="round" stroke-width=".6">
  <path id="Icon_feather-star" d="m12.3 0.29996 3.708 7.9 8.292 1.274-6 6.145 1.416 8.681-7.416-4.1-7.416 4.1 1.416-8.681-6-6.145 8.292-1.274z" data-name="Icon feather-star"/>
  <path d="m36.3 0.29996 3.708 7.9 8.292 1.274-6 6.145 1.416 8.681-7.416-4.1-7.416 4.1 1.416-8.681-6-6.145 8.292-1.274z" data-name="Icon feather-star"/>
  <path d="m24.3 1.5 3.708 7.9 8.292 1.274-6 6.145 1.416 8.681-7.416-4.1-7.416 4.1 1.416-8.681-6-6.145 8.292-1.274z" data-name="Icon feather-star"/>
 </g>
</svg>
